# xmcd
#
# Track frame offsets: 
#        150
#        9332
#        27047
#        39695
#        54250
#        68952
#        85820
#        100707
#        114550
#        122977
#        136815
#        144475
#        155870
#        171067
#        185485
#        198077
#        212462
#
# Disc length: 2999 seconds
#
# Revision: 0
# Processed by: cddbd v1.5.2PL0 Copyright (c) Steve Scherf et al.
# Submitted via: ExactAudioCopy v0.99pb4
#
DISCID=e10bb511
DTITLE=Micah Ciampa - Human Behaviour Commentary
DYEAR=1998
DGENRE=Blues
TTITLE0=Dog Song
TTITLE1=Bus to Boulder
TTITLE2=Who We Know
TTITLE3=Bar Song
TTITLE4=Accept the Product
TTITLE5=Father Colfax
TTITLE6=Undesirables
TTITLE7=Vulture Song
TTITLE8=Age of Information
TTITLE9=Brother Do You Hate?
TTITLE10=Just a Test
TTITLE11=Fatherless Child
TTITLE12=Poor But Proud
TTITLE13=Artificial Light
TTITLE14=Driving Song
TTITLE15=Angry Little Man
TTITLE16=Speed Queen
EXTD=
EXTT0=
EXTT1=
EXTT2=
EXTT3=
EXTT4=
EXTT5=
EXTT6=
EXTT7=
EXTT8=
EXTT9=
EXTT10=
EXTT11=
EXTT12=
EXTT13=
EXTT14=
EXTT15=
EXTT16=
PLAYORDER=
